<svg width="49" height="49" fill="none" xmlns="http://www.w3.org/2000/svg"><rect width="48" height="48" rx="16" stroke="#1565D8" opacity=".2"/><path opacity=".3" fill-rule="evenodd" clip-rule="evenodd" d="M23.552 29.04a2.352 2.352 0 00-2.352 2.352v3.584c0 .433.351.784.784.784h4.032a.784.784 0 00.784-.784v-3.584a2.352 2.352 0 00-2.352-2.352h-.896z" fill="#1565D8"/><path fill-rule="evenodd" clip-rule="evenodd" d="M27.92 35.068v-3.69c0-1.91-1.746-3.458-3.657-3.458h-.527c-1.91 0-3.656 1.549-3.656 3.459v3.69c0 .242.042.475.118.691h-1.732a3.459 3.459 0 01-3.459-3.459V21.72l-1.62 1.417a.692.692 0 01-.91-1.041l11.067-9.685a.692.692 0 01.912 0l11.068 9.685a.692.692 0 11-.911 1.041l-1.62-1.417V32.3a3.459 3.459 0 01-3.459 3.459h-1.732c.076-.216.118-.45.118-.692z" fill="#1565D8"/></svg>