<svg width="49" height="49" fill="none" xmlns="http://www.w3.org/2000/svg"><rect width="48" height="48" rx="16" stroke="#1565D8" opacity=".2"/><path fill-rule="evenodd" clip-rule="evenodd" d="M21.76 23.44a5.04 5.04 0 110-10.08 5.04 5.04 0 010 10.08zm0 1.12a8.4 8.4 0 018.4 8.4v2.24c0 .31-.25.56-.56.56H13.92a.56.56 0 01-.56-.56v-2.24a8.4 8.4 0 018.4-8.4z" fill="#1565D8"/><path opacity=".3" fill-rule="evenodd" clip-rule="evenodd" d="M33.688 20.416a.84.84 0 111.344 1.008l-3.36 4.48a.84.84 0 01-1.266.09l-2.24-2.24a.84.84 0 111.188-1.188l1.555 1.555 2.779-3.705z" fill="#1565D8"/></svg>