<svg width="40" height="40" fill="none" xmlns="http://www.w3.org/2000/svg"><rect opacity=".1" width="40" height="40" rx="20" fill="#5A7184"/><path d="M26.333 13.334h-12.03c-.532 0-.97.468-.97 1.03v11.97c0 .562.438 1 .97 1h12.03c.532 0 1-.438 1-1v-11.97c0-.562-.468-1.03-1-1.03zm-8.78 12H15.49v-6.657h2.062v6.657zM16.52 17.74c-.688 0-1.219-.531-1.219-1.188a1.22 1.22 0 011.219-1.218c.656 0 1.187.562 1.187 1.218 0 .657-.53 1.188-1.187 1.188zm8.812 7.594H23.24v-3.25c0-.75 0-1.75-1.063-1.75-1.094 0-1.25.843-1.25 1.718v3.282h-2.062v-6.657h1.968v.907h.032c.28-.532.968-1.094 1.968-1.094 2.094 0 2.5 1.406 2.5 3.187v3.657z" fill="#5A7184"/></svg>