<svg width="42" height="40" fill="none" xmlns="http://www.w3.org/2000/svg"><rect opacity=".1" width="42" height="40" rx="20" fill="#5A7184"/><path d="M27.677 17.084a6.952 6.952 0 001.625-1.688 6.15 6.15 0 01-1.875.5 3.206 3.206 0 001.438-1.813 6.931 6.931 0 01-2.063.813 3.281 3.281 0 00-2.406-1.031 3.28 3.28 0 00-3.281 3.281c0 .25.03.5.093.75a9.52 9.52 0 01-6.78-3.438 3.192 3.192 0 00-.438 1.657 3.23 3.23 0 001.468 2.719c-.53-.032-1.062-.157-1.5-.407v.032a3.285 3.285 0 002.625 3.218c-.25.063-.562.125-.843.125-.22 0-.407-.031-.625-.062a3.266 3.266 0 003.062 2.281 6.597 6.597 0 01-4.062 1.406c-.282 0-.532-.031-.782-.062 1.438.937 3.157 1.469 5.032 1.469 6.03 0 9.312-4.97 9.312-9.313v-.438z" fill="#5A7184"/></svg>