<svg width="40" height="40" fill="none" xmlns="http://www.w3.org/2000/svg"><path fill-rule="evenodd" clip-rule="evenodd" d="M6.508 27.872V9.737a3.963 3.963 0 00-3.175 3.88v20.59c0 .522.497.902 1.002.765 1.244-.337 3.506-1.027 5.248-1.56 1.114-.34 2.017-.615 2.304-.691 1.556-.415 3.036-.669 4.88-.794-2.324-1.119-4.94-1.68-7.878-1.68a2.378 2.378 0 01-2.381-2.375zM33.492 9.737v18.135a2.378 2.378 0 01-2.38 2.376c-2.913 0-5.525.56-7.865 1.68 1.838.126 3.314.38 4.866.793.287.076 1.19.352 2.304.692 1.742.532 4.004 1.222 5.248 1.559a.793.793 0 001.002-.764v-20.59a3.963 3.963 0 00-3.175-3.881z" fill="#B4CCEF"/><path fill-rule="evenodd" clip-rule="evenodd" d="M19.206 31.84c-2.962-1.89-6.395-2.835-10.317-2.835a.797.797 0 01-.794-.8V5.8c0-.442.356-.8.794-.8 3.87 0 7.313.855 10.317 2.567V31.84zm1.588-24.265C23.83 5.858 27.274 5 31.11 5c.438 0 .794.358.794.8v22.405c0 .442-.356.8-.794.8-3.892 0-7.326.946-10.317 2.837V7.575z" fill="#1565D8"/></svg>