<svg width="48" height="48" fill="none" xmlns="http://www.w3.org/2000/svg"><rect opacity=".1" width="48" height="48" rx="24" fill="#1565D8"/><path d="M24.5 17.969a6.78 6.78 0 00-6.781 6.781 6.78 6.78 0 006.781 6.781 6.78 6.78 0 006.781-6.781 6.78 6.78 0 00-6.781-6.781zm1.723 3.527c.218-.3.683-.328.902 0 .328.52.41 1.012.438 1.504-.028.52-.11 1.012-.438 1.531a.563.563 0 01-.902 0c-.328-.52-.41-1.011-.41-1.531 0-.492.082-.984.41-1.504zm-4.375 0c.218-.3.683-.328.902 0 .328.52.41 1.012.438 1.504-.028.52-.11 1.012-.438 1.531a.563.563 0 01-.902 0c-.328-.52-.41-1.011-.41-1.531 0-.492.082-.984.41-1.504zm2.652 8.067c-1.668 0-3.691-1.04-3.938-2.543a.434.434 0 01.547-.493c.848.274 2.078.41 3.391.41 1.313 0 2.516-.136 3.363-.41a.434.434 0 01.547.492c-.246 1.504-2.27 2.544-3.91 2.544z" fill="#1565D8"/></svg>