<svg width="48" height="48" fill="none" xmlns="http://www.w3.org/2000/svg"><rect opacity=".1" width="48" height="48" rx="24" fill="#1565D8"/><path d="M21.875 24.75c1.914 0 3.5-1.559 3.5-3.5 0-1.914-1.586-3.5-3.5-3.5a3.507 3.507 0 00-3.5 3.5 3.49 3.49 0 003.5 3.5zm2.434.875h-.465c-.602.3-1.258.438-1.969.438-.71 0-1.395-.137-1.996-.438h-.465c-2.023 0-3.664 1.668-3.664 3.691v1.122c0 .738.574 1.312 1.313 1.312h9.625c.71 0 1.312-.574 1.312-1.313v-1.12c0-2.024-1.668-3.692-3.691-3.692zm8.832-3.5l-.766-.766a.285.285 0 00-.438 0l-2.87 2.844-1.258-1.258c-.11-.136-.329-.136-.465 0l-.766.766c-.11.11-.11.328 0 .465l2.242 2.242a.315.315 0 00.465 0l3.856-3.828a.315.315 0 000-.465z" fill="#1565D8"/></svg>